<?xml version="1.0" encoding="UTF-8" standalone="no"?>

<svg
   xmlns:dc="http://purl.org/dc/elements/1.1/"
   xmlns:cc="http://creativecommons.org/ns#"
   xmlns:rdf="http://www.w3.org/1999/02/22-rdf-syntax-ns#"
   xmlns="http://www.w3.org/2000/svg"
   xmlns:sodipodi="http://sodipodi.sourceforge.net/DTD/sodipodi-0.dtd"
   xmlns:inkscape="http://www.inkscape.org/namespaces/inkscape"
   width="1200"
   height="630"
   viewBox="0 0 210 297"
   version="1.1"
   id="svg8"
   inkscape:version="0.92.2 (5c3e80d, 2017-08-06)"
   sodipodi:docname="cover.svg">
  <defs
     id="defs2" />
  <sodipodi:namedview
     id="base"
     pagecolor="#ffffff"
     bordercolor="#666666"
     borderopacity="1.0"
     inkscape:pageopacity="0.0"
     inkscape:pageshadow="2"
     inkscape:zoom="1"
     inkscape:cx="581.90239"
     inkscape:cy="367.86797"
     inkscape:document-units="mm"
     inkscape:current-layer="layer1"
     showgrid="false"
     inkscape:window-width="1858"
     inkscape:window-height="1057"
     inkscape:window-x="54"
     inkscape:window-y="-8"
     inkscape:window-maximized="1" />
  <metadata
     id="metadata5">
    <rdf:RDF>
      <cc:Work
         rdf:about="">
        <dc:format>image/svg+xml</dc:format>
        <dc:type
           rdf:resource="http://purl.org/dc/dcmitype/StillImage" />
        <dc:title></dc:title>
      </cc:Work>
    </rdf:RDF>
  </metadata>
  <g
     inkscape:label="Layer 1"
     inkscape:groupmode="layer"
     id="layer1">
    <rect
       id="rect4515"
       width="565.71429"
       height="297"
       x="-177.85715"
       y="1.5258789e-005"
       style="stroke-width:0.46846357;fill:#f7f7f7;fill-opacity:1" />
    <circle
       style="fill:#ffffff;fill-opacity:1;stroke-width:0.32110167"
       id="path4518"
       cx="105"
       cy="148.5"
       r="40.071426" />
  </g>
  <g
     inkscape:groupmode="layer"
     id="layer2"
     inkscape:label="Layer 2">
    <path
       id="path4504"
       d="m 124.22011,132.27078 c -0.28466,0.28462 -0.1422,0.5692 0.28464,0.5692 4.55364,-0.9961 7.11508,3.41524 3.13064,6.26125 -2.70374,1.84992 -5.97664,-0.5692 -7.54198,-2.70371 -0.28464,-0.56922 -0.7115,-0.99612 -0.99612,-1.56532 v 0 c -2.2768,-4.83824 -4.26902,-11.0995 -11.66868,-11.0995 -7.39967,0 -10.245696,8.53808 -11.953296,12.0956 v 0 c -0.71149,1.56531 -1.56531,3.27293 -2.70371,4.69595 -1.84992,2.56142 -4.69596,3.98442 -7.82658,4.12672 -1.5653,0.1424 -2.98832,-0.9961 -3.98443,-2.13452 -2.27683,-2.27682 0.85382,-7.68425 3.41524,-4.55364 0.14218,0.1422 0.28464,0 0.28464,-0.1424 -0.5692,-4.12673 -4.83822,-2.84601 -6.68814,-0.4269 -3.13062,3.84214 0.14218,8.25348 3.69981,10.1034 3.98444,2.13452 10.2457,-0.1424 13.51861,-2.98834 -0.28464,0.28462 -0.42687,0.56922 -0.71149,0.85382 -3.13062,3.84212 -6.83046,6.11894 -10.67258,8.96498 -2.41912,1.7076 -4.26905,5.26514 -3.27294,8.11116 0.7115,2.13452 3.27294,2.70372 4.98055,1.84992 0,0 0.14216,-0.1422 0,-0.1422 -4.26905,-0.5692 -2.98833,-4.41134 -0.56921,-6.26126 1.2807,-0.9961 2.56142,-1.7076 3.98444,-2.27682 2.56142,-1.1384 5.54974,-2.27682 7.54196,-4.12672 1.1384,-0.99612 2.41912,-2.27682 3.41523,-3.41524 0.142176,1.70762 0.284646,3.41524 0.284646,4.98054 -0.14218,2.56142 -0.569196,5.26516 -1.849896,7.54198 -0.99611,1.5653 -2.84603,2.1345 -4.55363,1.99222 -2.70374,-0.1422 -1.42302,-2.27684 -1.28072,-3.41524 0,-0.1424 -0.14218,-0.1424 -0.14218,-0.1424 -1.99222,1.28072 -2.27684,3.55754 -0.99611,5.54974 1.7076,2.84604 6.54585,1.84992 8.822646,0.1422 3.27294,-2.70372 4.83825,-6.26124 5.40745,-10.38798 0,-0.28462 0.14216,-0.7115 0.14216,-0.99612 0,0.28462 0,0.56922 0.14218,0.85382 0.28465,2.84602 1.7076,5.54974 2.98833,8.11116 0.71149,1.42302 1.28069,2.84604 1.56531,4.41134 0.5692,2.98832 -0.99611,6.68815 -4.55364,4.26903 0,0 -0.14218,0 -0.14218,0.1422 0.85379,1.84994 3.13062,3.13062 4.98054,1.84994 2.70371,-1.56532 3.41521,-5.40745 2.84601,-8.39577 -0.99612,-4.69594 -2.41913,-8.82268 -2.13451,-13.80322 0,-1.13842 0,-2.13452 0.14218,-3.13064 1.28071,1.28072 2.70373,2.41912 4.41133,3.13064 2.41914,0.9961 6.54586,1.84992 4.55364,5.54974 -1.42302,2.70372 -3.2729,6.68816 -0.5692,9.24958 1.56532,1.56532 3.98444,1.99222 5.26516,0 0.1422,-0.1422 -0.1422,-0.2846 -0.28464,-0.2846 -3.41524,1.2807 -3.41524,-2.98834 -2.2768,-4.83824 0.85378,-1.42302 1.84988,-2.70374 2.7037,-4.12674 1.1384,-2.27682 0,-5.12286 -1.7076,-6.83046 -1.13842,-1.13842 -2.27682,-1.84992 -3.69984,-2.70374 -0.1422,0 -0.28466,-0.1424 -0.42692,-0.2846 v 0 c -3.13062,-2.13452 -3.55752,-4.83824 -0.85378,-3.13064 l 0.1422,0.1424 v 0 c 0.1422,0.1422 0.28464,0.1422 0.28464,0.1422 3.13066,1.56532 6.97276,1.70762 10.10342,-0.2846 2.98832,-1.84992 5.12283,-5.54976 3.55751,-9.10727 -1.99221,-3.69984 -5.40743,-4.26904 -8.53805,-1.99222 z"
       inkscape:connector-curvature="0"
       style="fill:#0d47a1;stroke-width:1.42301214" />
  </g>
</svg>
